<svg width="44" height="44" viewBox="0 0 44 44" fill="none" xmlns="http://www.w3.org/2000/svg">
<g clip-path="url(#clip0_870_1206)">
<path d="M22 41.25C16.8946 41.25 11.9983 39.2219 8.38819 35.6118C4.77812 32.0017 2.75 27.1054 2.75 22C2.75 16.8946 4.77812 11.9983 8.38819 8.38819C11.9983 4.77812 16.8946 2.75 22 2.75C27.1054 2.75 32.0017 4.77812 35.6118 8.38819C39.2219 11.9983 41.25 16.8946 41.25 22C41.25 27.1054 39.2219 32.0017 35.6118 35.6118C32.0017 39.2219 27.1054 41.25 22 41.25ZM22 44C27.8348 44 33.4305 41.6822 37.5564 37.5564C41.6822 33.4305 44 27.8348 44 22C44 16.1652 41.6822 10.5695 37.5564 6.44365C33.4305 2.31785 27.8348 0 22 0C16.1652 0 10.5695 2.31785 6.44365 6.44365C2.31785 10.5695 0 16.1652 0 22C0 27.8348 2.31785 33.4305 6.44365 37.5564C10.5695 41.6822 16.1652 44 22 44Z" fill="white"/>
<path d="M24.5576 18.117L18.2601 18.9062L18.0346 19.9513L19.2721 20.1795C20.0806 20.372 20.2401 20.6635 20.0641 21.4693L18.0346 31.0062C17.5011 33.473 18.3234 34.6335 20.2566 34.6335C21.7554 34.6335 23.4961 33.9405 24.2854 32.989L24.5274 31.845C23.9774 32.329 23.1744 32.5215 22.6409 32.5215C21.8846 32.5215 21.6096 31.9908 21.8049 31.0557L24.5576 18.117ZM24.7501 12.375C24.7501 13.1043 24.4604 13.8038 23.9447 14.3195C23.4289 14.8353 22.7295 15.125 22.0001 15.125C21.2708 15.125 20.5713 14.8353 20.0556 14.3195C19.5398 13.8038 19.2501 13.1043 19.2501 12.375C19.2501 11.6457 19.5398 10.9462 20.0556 10.4305C20.5713 9.91473 21.2708 9.625 22.0001 9.625C22.7295 9.625 23.4289 9.91473 23.9447 10.4305C24.4604 10.9462 24.7501 11.6457 24.7501 12.375Z" fill="white"/>
</g>
<defs>
<clipPath id="clip0_870_1206">
<rect width="44" height="44" fill="white"/>
</clipPath>
</defs>
</svg>
