<svg width="56" height="56" viewBox="0 0 56 56" fill="none" xmlns="http://www.w3.org/2000/svg">
<rect x="0.5" y="0.5" width="55" height="55" rx="14.5" fill="#21005D" fill-opacity="0.36" stroke="#21005D"/>
<path d="M42.1239 15.0032C39.0794 15.1836 33.0281 15.8406 29.2925 18.2293C29.0347 18.3942 28.8886 18.6872 28.8886 18.9937V40.111C28.8886 40.7813 29.5903 41.205 30.182 40.8939C34.0254 38.8731 39.5838 38.3218 42.3322 38.1709C43.2705 38.1192 44 37.3334 44 36.3915V16.7848C44.0006 15.757 43.1472 14.9428 42.1239 15.0032ZM26.7075 18.2293C22.9724 15.8406 16.9212 15.1842 13.8767 15.0032C12.8533 14.9428 12 15.757 12 16.7848V36.3921C12 37.3346 12.7295 38.1204 13.6678 38.1715C16.4173 38.3224 21.9785 38.8743 25.8219 40.8962C26.4119 41.2067 27.1114 40.7836 27.1114 40.1151V18.9832C27.1114 18.6762 26.9658 18.3947 26.7075 18.2293Z" fill="#21005D"/>
</svg>
