<svg width="52" height="41" viewBox="0 0 52 41" fill="none" xmlns="http://www.w3.org/2000/svg">
<path d="M46.9999 1.66667C44.4099 0.85 41.5633 0.5 38.8333 0.5C34.2832 0.5 29.3833 1.43333 25.9999 4C22.6166 1.43333 17.7166 0.5 13.1666 0.5C8.61658 0.5 3.71659 1.43333 0.333252 4V38.1833C0.333252 38.7667 0.916585 39.35 1.49992 39.35C1.73325 39.35 1.84992 39.2333 2.08325 39.2333C5.23325 37.7167 9.78325 36.6667 13.1666 36.6667C17.7166 36.6667 22.6166 37.6 25.9999 40.1667C29.1499 38.1833 34.8666 36.6667 38.8333 36.6667C42.6833 36.6667 46.6499 37.3667 49.9166 39.1167C50.1499 39.2333 50.2666 39.2333 50.4999 39.2333C51.0833 39.2333 51.6666 38.65 51.6666 38.0667V4C50.2666 2.95 48.7499 2.25 46.9999 1.66667ZM46.9999 33.1667C44.4333 32.35 41.6333 32 38.8333 32C34.8666 32 29.1499 33.5167 25.9999 35.5V8.66667C29.1499 6.68333 34.8666 5.16667 38.8333 5.16667C41.6333 5.16667 44.4333 5.51667 46.9999 6.33333V33.1667Z" fill="black"/>
<path d="M38.8333 14.5C40.8866 14.5 42.8699 14.71 44.6666 15.1067V11.56C42.8233 11.21 40.8399 11 38.8333 11C34.8666 11 31.2733 11.6767 28.3333 12.9367V16.81C30.9699 15.3167 34.6333 14.5 38.8333 14.5Z" fill="black"/>
<path d="M28.3333 19.1433V23.0167C30.9699 21.5233 34.6333 20.7067 38.8333 20.7067C40.8866 20.7067 42.8699 20.9167 44.6666 21.3133V17.7667C42.8233 17.4167 40.8399 17.2067 38.8333 17.2067C34.8666 17.2067 31.2733 17.9067 28.3333 19.1433Z" fill="black"/>
<path d="M38.8333 23.4366C34.8666 23.4366 31.2733 24.1133 28.3333 25.3733V29.2466C30.9699 27.7533 34.6333 26.9366 38.8333 26.9366C40.8866 26.9366 42.8699 27.1466 44.6666 27.5433V23.9966C42.8233 23.6233 40.8399 23.4366 38.8333 23.4366Z" fill="black"/>
</svg>
