<svg width="56" height="56" viewBox="0 0 56 56" fill="none" xmlns="http://www.w3.org/2000/svg">
<rect x="0.5" y="0.5" width="55" height="55" rx="14.5" fill="#21005D" fill-opacity="0.36" stroke="#21005D"/>
<path d="M39 32.9844V15.2656C39 14.5643 38.4507 14 37.7679 14H20.9286C18.2076 14 16 16.2676 16 19.0625V35.9375C16 38.7324 18.2076 41 20.9286 41H37.7679C38.4507 41 39 40.4357 39 39.7344V38.8906C39 38.4951 38.8203 38.1365 38.5431 37.9045C38.3275 37.0924 38.3275 34.7773 38.5431 33.9652C38.8203 33.7385 39 33.3799 39 32.9844ZM22.5714 21.0664C22.5714 20.8924 22.71 20.75 22.8795 20.75H33.7634C33.9328 20.75 34.0714 20.8924 34.0714 21.0664V22.1211C34.0714 22.2951 33.9328 22.4375 33.7634 22.4375H22.8795C22.71 22.4375 22.5714 22.2951 22.5714 22.1211V21.0664ZM22.5714 24.4414C22.5714 24.2674 22.71 24.125 22.8795 24.125H33.7634C33.9328 24.125 34.0714 24.2674 34.0714 24.4414V25.4961C34.0714 25.6701 33.9328 25.8125 33.7634 25.8125H22.8795C22.71 25.8125 22.5714 25.6701 22.5714 25.4961V24.4414ZM35.5808 37.625H20.9286C20.0199 37.625 19.2857 36.8709 19.2857 35.9375C19.2857 35.0094 20.025 34.25 20.9286 34.25H35.5808C35.4833 35.1518 35.4833 36.7232 35.5808 37.625Z" fill="#2C0735"/>
</svg>
