<svg width="32" height="26" viewBox="0 0 32 26" fill="none" xmlns="http://www.w3.org/2000/svg">
<path d="M30.1239 0.00315168C27.0794 0.183642 21.0281 0.840603 17.2925 3.22934C17.0347 3.39416 16.8886 3.68724 16.8886 3.99367V25.111C16.8886 25.7813 17.5903 26.205 18.182 25.8939C22.0254 23.8731 27.5838 23.3218 30.3322 23.1709C31.2705 23.1192 32 22.3334 32 21.3915V1.78484C32.0006 0.757032 31.1472 -0.0572052 30.1239 0.00315168ZM14.7075 3.22934C10.9724 0.840603 4.9212 0.184222 1.8767 0.00315168C0.853348 -0.0572052 0 0.757032 0 1.78484V21.3921C0 22.3346 0.729457 23.1204 1.66781 23.1715C4.4173 23.3224 9.97851 23.8743 13.8219 25.8962C14.4119 26.2067 15.1114 25.7836 15.1114 25.1151V3.98322C15.1114 3.67621 14.9658 3.39474 14.7075 3.22934Z" fill="#21005D"/>
</svg>
