<svg width="52" height="41" viewBox="0 0 52 41" fill="none" xmlns="http://www.w3.org/2000/svg">
<path d="M47.0002 1.66667C44.4102 0.85 41.5635 0.5 38.8335 0.5C34.2835 0.5 29.3835 1.43333 26.0002 4C22.6168 1.43333 17.7168 0.5 13.1668 0.5C8.61683 0.5 3.71683 1.43333 0.333496 4V38.1833C0.333496 38.7667 0.916829 39.35 1.50016 39.35C1.7335 39.35 1.85016 39.2333 2.0835 39.2333C5.2335 37.7167 9.7835 36.6667 13.1668 36.6667C17.7168 36.6667 22.6168 37.6 26.0002 40.1667C29.1502 38.1833 34.8668 36.6667 38.8335 36.6667C42.6835 36.6667 46.6502 37.3667 49.9168 39.1167C50.1502 39.2333 50.2668 39.2333 50.5002 39.2333C51.0835 39.2333 51.6668 38.65 51.6668 38.0667V4C50.2668 2.95 48.7502 2.25 47.0002 1.66667ZM47.0002 33.1667C44.4335 32.35 41.6335 32 38.8335 32C34.8668 32 29.1502 33.5167 26.0002 35.5V8.66667C29.1502 6.68333 34.8668 5.16667 38.8335 5.16667C41.6335 5.16667 44.4335 5.51667 47.0002 6.33333V33.1667Z" fill="#6750A4"/>
<path d="M38.8335 14.5C40.8868 14.5 42.8702 14.71 44.6668 15.1067V11.56C42.8235 11.21 40.8402 11 38.8335 11C34.8668 11 31.2735 11.6767 28.3335 12.9367V16.81C30.9702 15.3167 34.6335 14.5 38.8335 14.5Z" fill="#323232"/>
<path d="M28.3335 19.1433V23.0167C30.9702 21.5233 34.6335 20.7067 38.8335 20.7067C40.8868 20.7067 42.8702 20.9167 44.6668 21.3133V17.7667C42.8235 17.4167 40.8402 17.2067 38.8335 17.2067C34.8668 17.2067 31.2735 17.9067 28.3335 19.1433Z" fill="#323232"/>
<path d="M38.8335 23.4366C34.8668 23.4366 31.2735 24.1133 28.3335 25.3733V29.2466C30.9702 27.7533 34.6335 26.9366 38.8335 26.9366C40.8868 26.9366 42.8702 27.1466 44.6668 27.5433V23.9966C42.8235 23.6233 40.8402 23.4366 38.8335 23.4366Z" fill="#323232"/>
</svg>
