<svg width="32" height="20" viewBox="0 0 32 20" fill="none" xmlns="http://www.w3.org/2000/svg">
<path d="M18.6778 0H2.65556C1.18889 0 0 1.11458 0 2.48958V17.5104C0 18.8854 1.18889 20 2.65556 20H18.6778C20.1444 20 21.3333 18.8854 21.3333 17.5104V2.48958C21.3333 1.11458 20.1444 0 18.6778 0ZM29.2 1.96354L26.5518 3.67602C24.4066 5.0633 23.1111 7.44377 23.1111 9.99853C23.1111 12.5549 24.4082 14.9366 26.5557 16.3235L29.2 18.0312C30.3778 18.7917 32 18.0156 32 16.6875V3.30729C32 1.98438 30.3833 1.20312 29.2 1.96354Z" fill="#21005D"/>
</svg>
