<svg width="56" height="56" viewBox="0 0 56 56" fill="none" xmlns="http://www.w3.org/2000/svg">
<rect x="0.5" y="0.5" width="55" height="55" rx="14.5" fill="#21005D" fill-opacity="0.36" stroke="#21005D"/>
<path d="M32.6778 18H16.6556C15.1889 18 14 19.1146 14 20.4896V35.5104C14 36.8854 15.1889 38 16.6556 38H32.6778C34.1444 38 35.3333 36.8854 35.3333 35.5104V20.4896C35.3333 19.1146 34.1444 18 32.6778 18ZM43.2 19.9635L40.5518 21.676C38.4066 23.0633 37.1111 25.4438 37.1111 27.9985C37.1111 30.5549 38.4082 32.9366 40.5557 34.3235L43.2 36.0312C44.3778 36.7917 46 36.0156 46 34.6875V21.3073C46 19.9844 44.3833 19.2031 43.2 19.9635Z" fill="#21005D"/>
</svg>
