<svg width="43" height="50" viewBox="0 0 43 50" fill="none" xmlns="http://www.w3.org/2000/svg">
<path d="M28.1636 0.356689H14.1636V5.02336H28.1636V0.356689ZM18.8302 30.69H23.4969V16.69H18.8302V30.69ZM37.5669 15.2434L40.8802 11.93C39.8769 10.74 38.7802 9.62002 37.5902 8.64002L34.2769 11.9534C30.6602 9.06002 26.1102 7.33336 21.1636 7.33336C9.56691 7.33336 0.163574 16.7367 0.163574 28.3334C0.163574 39.93 9.54357 49.3334 21.1636 49.3334C32.7836 49.3334 42.1636 39.93 42.1636 28.3334C42.1636 23.41 40.4369 18.86 37.5669 15.2434ZM21.1636 44.69C12.1336 44.69 4.83024 37.3867 4.83024 28.3567C4.83024 19.3267 12.1336 12.0234 21.1636 12.0234C30.1936 12.0234 37.4969 19.3267 37.4969 28.3567C37.4969 37.3867 30.1936 44.69 21.1636 44.69Z" fill="#6750A4"/>
</svg>
