<svg width="80" height="80" viewBox="0 0 80 80" xmlns="http://www.w3.org/2000/svg">
<path d="M80 40C80 50.6087 75.7857 60.7828 68.2843 68.2843C60.7828 75.7857 50.6087 80 40 80C29.3913 80 19.2172 75.7857 11.7157 68.2843C4.21427 60.7828 0 50.6087 0 40C0 29.3913 4.21427 19.2172 11.7157 11.7157C19.2172 4.21427 29.3913 0 40 0C50.6087 0 60.7828 4.21427 68.2843 11.7157C75.7857 19.2172 80 29.3913 80 40ZM40 17.5C40 16.837 39.7366 16.2011 39.2678 15.7322C38.7989 15.2634 38.163 15 37.5 15C36.837 15 36.2011 15.2634 35.7322 15.7322C35.2634 16.2011 35 16.837 35 17.5V45C35.0001 45.4407 35.1168 45.8735 35.338 46.2545C35.5593 46.6356 35.8774 46.9514 36.26 47.17L53.76 57.17C54.3343 57.4804 55.0072 57.5538 55.6349 57.3746C56.2626 57.1954 56.7954 56.7778 57.1192 56.211C57.4431 55.6442 57.5325 54.9732 57.3682 54.3414C57.2039 53.7097 56.799 53.1672 56.24 52.83L40 43.55V17.5Z"/>
</svg>
