<svg width="56" height="56" viewBox="0 0 56 56" fill="none" xmlns="http://www.w3.org/2000/svg">
<g clip-path="url(#clip0_208_959)">
<path d="M27.9767 4.66663C15.0967 4.66663 4.66675 15.12 4.66675 28C4.66675 40.88 15.0967 51.3333 27.9767 51.3333C40.8801 51.3333 51.3334 40.88 51.3334 28C51.3334 15.12 40.8801 4.66663 27.9767 4.66663ZM28.0001 46.6666C17.6867 46.6666 9.33342 38.3133 9.33342 28C9.33342 17.6866 17.6867 9.33329 28.0001 9.33329C38.3134 9.33329 46.6668 17.6866 46.6668 28C46.6668 38.3133 38.3134 46.6666 28.0001 46.6666Z" fill="black"/>
<path d="M29.1667 16.3334H25.6667V30.3334L37.9167 37.6834L39.6667 34.8134L29.1667 28.5834V16.3334Z" fill="black"/>
</g>
<defs>
<clipPath id="clip0_208_959">
<rect width="56" height="56" fill="white"/>
</clipPath>
</defs>
</svg>
