<svg width="44" height="44" viewBox="0 0 44 44" fill="none" xmlns="http://www.w3.org/2000/svg">
<g clip-path="url(#clip0_983_1199)">
<path d="M22 9.625C22 9.26033 21.8551 8.91059 21.5973 8.65273C21.3394 8.39487 20.9897 8.25 20.625 8.25C20.2603 8.25 19.9106 8.39487 19.6527 8.65273C19.3949 8.91059 19.25 9.26033 19.25 9.625V24.75C19.2501 24.9924 19.3142 25.2304 19.4359 25.44C19.5576 25.6496 19.7326 25.8233 19.943 25.9435L29.568 31.4435C29.8839 31.6142 30.254 31.6546 30.5992 31.556C30.9445 31.4575 31.2374 31.2278 31.4156 30.916C31.5937 30.6043 31.6429 30.2353 31.5525 29.8878C31.4621 29.5403 31.2394 29.242 30.932 29.0565L22 23.9525V9.625Z" fill="white"/>
<path d="M22 44C27.8348 44 33.4305 41.6822 37.5564 37.5564C41.6822 33.4305 44 27.8348 44 22C44 16.1652 41.6822 10.5695 37.5564 6.44365C33.4305 2.31785 27.8348 0 22 0C16.1652 0 10.5695 2.31785 6.44365 6.44365C2.31785 10.5695 0 16.1652 0 22C0 27.8348 2.31785 33.4305 6.44365 37.5564C10.5695 41.6822 16.1652 44 22 44ZM41.25 22C41.25 27.1054 39.2219 32.0017 35.6118 35.6118C32.0017 39.2219 27.1054 41.25 22 41.25C16.8946 41.25 11.9983 39.2219 8.38819 35.6118C4.77812 32.0017 2.75 27.1054 2.75 22C2.75 16.8946 4.77812 11.9983 8.38819 8.38819C11.9983 4.77812 16.8946 2.75 22 2.75C27.1054 2.75 32.0017 4.77812 35.6118 8.38819C39.2219 11.9983 41.25 16.8946 41.25 22Z" fill="white"/>
</g>
<defs>
<clipPath id="clip0_983_1199">
<rect width="44" height="44" fill="white"/>
</clipPath>
</defs>
</svg>
