<svg width="34" height="29" viewBox="0 0 34 29" fill="none" xmlns="http://www.w3.org/2000/svg">
<path d="M28.05 25.375H5.95C5.4825 25.375 5.1 25.7828 5.1 26.2812V28.0938C5.1 28.5922 5.4825 29 5.95 29H28.05C28.5175 29 28.9 28.5922 28.9 28.0938V26.2812C28.9 25.7828 28.5175 25.375 28.05 25.375ZM31.45 7.25C30.0422 7.25 28.9 8.46777 28.9 9.96875C28.9 10.3709 28.985 10.7447 29.1338 11.0902L25.2875 13.5484C24.4694 14.0695 23.4122 13.775 22.9394 12.8914L18.6097 4.81445C19.1781 4.31602 19.55 3.56836 19.55 2.71875C19.55 1.21777 18.4078 0 17 0C15.5922 0 14.45 1.21777 14.45 2.71875C14.45 3.56836 14.8219 4.31602 15.3903 4.81445L11.0606 12.8914C10.5878 13.775 9.52531 14.0695 8.7125 13.5484L4.87156 11.0902C5.015 10.7504 5.10531 10.3709 5.10531 9.96875C5.10531 8.46777 3.96312 7.25 2.55531 7.25C1.1475 7.25 0 8.46777 0 9.96875C0 11.4697 1.14219 12.6875 2.55 12.6875C2.68813 12.6875 2.82625 12.6648 2.95906 12.6422L6.8 23.5625H27.2L31.0409 12.6422C31.1737 12.6648 31.3119 12.6875 31.45 12.6875C32.8578 12.6875 34 11.4697 34 9.96875C34 8.46777 32.8578 7.25 31.45 7.25Z" fill="white"/>
</svg>
