<svg width="56" height="56" viewBox="0 0 56 56" fill="none" xmlns="http://www.w3.org/2000/svg">
<rect x="0.5" y="0.5" width="55" height="55" rx="14.5" fill="#21005D" fill-opacity="0.36" stroke="#21005D"/>
<path d="M29.9375 21.6406V15H20.1719C19.5225 15 19 15.5225 19 16.1719V38.8281C19 39.4775 19.5225 40 20.1719 40H36.5781C37.2275 40 37.75 39.4775 37.75 38.8281V22.8125H31.1094C30.4648 22.8125 29.9375 22.2852 29.9375 21.6406ZM33.0625 33.1641C33.0625 33.4863 32.7988 33.75 32.4766 33.75H24.2734C23.9512 33.75 23.6875 33.4863 23.6875 33.1641V32.7734C23.6875 32.4512 23.9512 32.1875 24.2734 32.1875H32.4766C32.7988 32.1875 33.0625 32.4512 33.0625 32.7734V33.1641ZM33.0625 30.0391C33.0625 30.3613 32.7988 30.625 32.4766 30.625H24.2734C23.9512 30.625 23.6875 30.3613 23.6875 30.0391V29.6484C23.6875 29.3262 23.9512 29.0625 24.2734 29.0625H32.4766C32.7988 29.0625 33.0625 29.3262 33.0625 29.6484V30.0391ZM33.0625 26.5234V26.9141C33.0625 27.2363 32.7988 27.5 32.4766 27.5H24.2734C23.9512 27.5 23.6875 27.2363 23.6875 26.9141V26.5234C23.6875 26.2012 23.9512 25.9375 24.2734 25.9375H32.4766C32.7988 25.9375 33.0625 26.2012 33.0625 26.5234ZM37.75 20.9521V21.25H31.5V15H31.7979C32.1104 15 32.4082 15.1221 32.6279 15.3418L37.4082 20.127C37.6279 20.3467 37.75 20.6445 37.75 20.9521Z" fill="#21005D"/>
</svg>
