<svg width="38" height="50" viewBox="0 0 38 50" fill="none" xmlns="http://www.w3.org/2000/svg">
<path d="M33.0002 16.6666H30.6668V11.9999C30.6668 5.55992 25.4402 0.333252 19.0002 0.333252C12.5602 0.333252 7.3335 5.55992 7.3335 11.9999V16.6666H5.00016C2.4335 16.6666 0.333496 18.7666 0.333496 21.3333V44.6666C0.333496 47.2332 2.4335 49.3333 5.00016 49.3333H33.0002C35.5668 49.3333 37.6668 47.2332 37.6668 44.6666V21.3333C37.6668 18.7666 35.5668 16.6666 33.0002 16.6666ZM12.0002 11.9999C12.0002 8.12659 15.1268 4.99992 19.0002 4.99992C22.8735 4.99992 26.0002 8.12659 26.0002 11.9999V16.6666H12.0002V11.9999ZM33.0002 44.6666H5.00016V21.3333H33.0002V44.6666ZM19.0002 37.6666C21.5668 37.6666 23.6668 35.5666 23.6668 32.9999C23.6668 30.4333 21.5668 28.3333 19.0002 28.3333C16.4335 28.3333 14.3335 30.4333 14.3335 32.9999C14.3335 35.5666 16.4335 37.6666 19.0002 37.6666Z" fill="#6750A4"/>
</svg>
