<svg width="25" height="28" viewBox="0 0 25 28" fill="none" xmlns="http://www.w3.org/2000/svg">
<path d="M12.5 14C16.4453 14 19.6429 10.9783 19.6429 7.25C19.6429 3.52168 16.4453 0.5 12.5 0.5C8.55469 0.5 5.35714 3.52168 5.35714 7.25C5.35714 10.9783 8.55469 14 12.5 14ZM17.5 15.6875H16.5681C15.3292 16.2254 13.9509 16.5312 12.5 16.5312C11.0491 16.5312 9.67634 16.2254 8.43192 15.6875H7.5C3.35937 15.6875 0 18.8621 0 22.775V24.9688C0 26.3662 1.19978 27.5 2.67857 27.5H22.3214C23.8002 27.5 25 26.3662 25 24.9688V22.775C25 18.8621 21.6406 15.6875 17.5 15.6875Z" fill="white"/>
</svg>
