<svg width="112" height="111" viewBox="0 0 112 111" fill="none" xmlns="http://www.w3.org/2000/svg">
<rect x="0.5" width="111" height="111" rx="55.5" fill="#2C0735"/>
<path d="M37.8024 39.7873C36.2431 39.2032 34.6261 40.4884 34.6261 42.2994V46.5056C34.6261 47.4403 36.2431 48.1413 35.8389 50.0691C35.7234 50.7117 35.0881 51.0623 35.1459 51.7633C35.2614 53.6327 37.4559 60.4093 37.1094 61.753C36.7629 63.0966 33.1246 62.5124 32.0274 62.5124C30.2949 62.5124 29.4864 63.3887 29.7174 60.4678C29.8906 58.0726 31.5076 53.4575 31.3921 51.5296C31.3921 50.887 30.5836 50.5365 30.6414 49.3097C30.6991 48.0829 31.5076 47.8492 31.6809 47.0898C32.0851 44.8698 31.5654 41.7152 31.6231 39.0863C31.6231 37.9764 30.9879 36.9248 30.0061 36.5743C28.2736 35.9317 25.9636 34.9386 27.1764 33.186L55.0119 21.7358C55.5316 21.5021 56.1091 21.5021 56.6289 21.7358L84.1179 32.6018C85.1574 32.9523 85.4461 34.1207 84.8686 35.1138L57.0331 46.564C56.5134 46.7977 55.9359 46.7977 55.4161 46.564L37.8024 39.7289V39.7873Z" fill="white"/>
<path d="M71.8814 78.9826V89.4396H40.1189V43.7558L54.2099 49.2472C54.7296 49.4224 55.1916 49.4808 55.7114 49.4808C56.3466 49.4808 56.9241 49.364 57.4439 49.1303L70.7841 43.6389H71.0729V56.3743H53.5169V62.5083H65.5289C66.6261 62.5083 67.5501 63.443 67.5501 64.553V70.3365C67.5501 71.4465 66.6261 72.3812 65.5289 72.3812H53.5169V78.9826H71.8814Z" fill="white"/>
</svg>
