<svg width="98" height="30" viewBox="0 0 98 30" fill="none" xmlns="http://www.w3.org/2000/svg">
<g clip-path="url(#clip0_208_842)">
<path d="M38.5141 11.6615V29.4751H31.7031L31.4581 29.0017L31.6051 27.3574H29.7676V20.4313L31.5071 19.8583L31.4581 17.8402L31.7276 17.4914H35.5251V11.9854C36.2601 11.2878 37.5586 11.7612 38.5141 11.6366V11.6615ZM35.5251 20.5559H33.0016V26.4107H35.5251V20.5559Z" fill="#2C0735"/>
<path d="M84.4025 12.0103C84.5985 11.3874 86.8035 11.7612 87.3915 11.6615L87.171 29.4751H80.605C79.968 29.1761 80.409 27.5069 80.262 27.3574H78.645V19.634H80.262V17.5163H84.4025V12.0103ZM84.623 20.5558H81.634V26.4106C82.5895 26.2861 83.888 26.7594 84.623 26.0618V20.5558Z" fill="#2C0735"/>
<path d="M68.4775 17.5163H71.4665V18.6873H72.275L72.3975 17.5163H75.852V19.634H77.469V29.1263C76.734 29.8239 75.4355 29.3505 74.48 29.4751V20.805H71.491V29.4751C70.5355 29.3505 69.237 29.8239 68.502 29.1263V17.5163H68.4775Z" fill="#2C0735"/>
<path d="M43.1199 17.5163V26.1864L45.7904 26.3608L46.1334 26.0619V17.5163H49.1224V29.1263C48.4609 29.8239 47.2359 29.3505 46.3539 29.4751V27.9553C45.3249 27.457 45.3739 28.6778 45.4229 29.4751H41.7234L41.6254 27.5816L40.1064 27.3574V17.5163H43.0954H43.1199Z" fill="#2C0735"/>
<path d="M96.3829 17.5163V19.634H97.9999V27.0086L96.4074 27.3823V29.4502H90.6254V27.3325L89.1554 27.3075L88.8369 26.9837C88.8369 26.9837 89.0084 26.8093 89.0084 26.7594V19.8333H90.6254V17.4914H96.3829V17.5163ZM94.9864 20.3316L91.9974 20.5558V26.4106L94.9864 26.1864V20.3316Z" fill="#2C0735"/>
<path d="M65.268 17.5163V19.8583L67.1055 19.634V29.4751H59.9515V27.3574H58.3345V24.0687H59.9515V21.951H64.337V20.5558H60.1965V17.5163H65.268ZM64.337 24.7663H61.103V26.1615H64.337V24.7663Z" fill="#2C0735"/>
<path d="M57.6484 17.5163V20.5558H53.5079V26.1864H57.4279V29.4751H51.8909V27.3574H50.2739V19.8583H51.8909V17.5163H57.6484Z" fill="#2C0735"/>
<path d="M28.1504 20.0825V23.122H21.3394C20.6534 22.3746 21.1189 21.0541 20.9964 20.0825H28.1504Z" fill="#2C0735"/>
<path d="M4.67948 8.2732C4.01798 8.02405 3.33198 8.57216 3.33198 9.3445V11.1383C3.33198 11.5369 4.01798 11.8359 3.84648 12.6581C3.79748 12.9321 3.52798 13.0816 3.55248 13.3806C3.60148 14.1778 4.53247 17.0679 4.38548 17.6409C4.23847 18.2139 2.69498 17.9648 2.22948 17.9648C1.49448 17.9648 1.15147 18.3385 1.24947 17.0928C1.32297 16.0713 2.00898 14.1031 1.95998 13.2809C1.95998 13.0069 1.61697 12.8574 1.64147 12.3342C1.66597 11.811 2.00898 11.7113 2.08247 11.3875C2.25397 10.4407 2.03347 9.09536 2.05797 7.97423C2.05797 7.50086 1.78847 7.0524 1.37197 6.90292C0.636975 6.62887 -0.343025 6.20533 0.171475 5.4579L11.9805 0.574742C12.201 0.475086 12.446 0.475086 12.6665 0.574742L24.3285 5.20876C24.7695 5.35825 24.892 5.85653 24.647 6.28007L12.838 11.1632C12.6175 11.2629 12.3725 11.2629 12.152 11.1632L4.67948 8.24828V8.2732Z" fill="#2C0735"/>
<path d="M19.3305 25.0404V29.5H5.85547V10.0172L11.8335 12.3591C12.054 12.4338 12.25 12.4588 12.4705 12.4588C12.74 12.4588 12.985 12.4089 13.2055 12.3093L18.865 9.96735H18.9875V15.3986H11.5395V18.0146H16.6355C17.101 18.0146 17.493 18.4132 17.493 18.8866V21.3531C17.493 21.8265 17.101 22.2251 16.6355 22.2251H11.5395V25.0404H19.3305Z" fill="#2C0735"/>
</g>
<defs>
<clipPath id="clip0_208_842">
<rect width="98" height="29" fill="white" transform="translate(0 0.5)"/>
</clipPath>
</defs>
</svg>
