<svg width="48" height="48" viewBox="0 0 48 48" fill="none" xmlns="http://www.w3.org/2000/svg">
<path d="M19.3332 34.5001L33.3332 24.0001L19.3332 13.5001V34.5001ZM23.9998 0.666748C11.1198 0.666748 0.666504 11.1201 0.666504 24.0001C0.666504 36.8801 11.1198 47.3334 23.9998 47.3334C36.8798 47.3334 47.3332 36.8801 47.3332 24.0001C47.3332 11.1201 36.8798 0.666748 23.9998 0.666748ZM23.9998 42.6667C13.7098 42.6667 5.33317 34.2901 5.33317 24.0001C5.33317 13.7101 13.7098 5.33341 23.9998 5.33341C34.2898 5.33341 42.6665 13.7101 42.6665 24.0001C42.6665 34.2901 34.2898 42.6667 23.9998 42.6667Z" fill="#6750A4"/>
</svg>
