<svg width="56" height="56" viewBox="0 0 56 56" fill="none" xmlns="http://www.w3.org/2000/svg">
<rect x="0.5" y="0.5" width="55" height="55" rx="14.5" fill="#21005D" fill-opacity="0.36" stroke="#2C0735"/>
<path d="M22 28C24.9016 28 27.25 25.5397 27.25 22.5C27.25 19.4603 24.9016 17 22 17C19.0984 17 16.75 19.4603 16.75 22.5C16.75 25.5397 19.0984 28 22 28ZM25.6 29.5714H25.2109C24.2359 30.0625 23.1531 30.3571 22 30.3571C20.8469 30.3571 19.7688 30.0625 18.7891 29.5714H18.4C15.4187 29.5714 13 32.1054 13 35.2286V36.6429C13 37.9442 14.0078 39 15.25 39H28.75C29.9922 39 31 37.9442 31 36.6429V35.2286C31 32.1054 28.5812 29.5714 25.6 29.5714ZM35.5 28C37.9844 28 40 25.8884 40 23.2857C40 20.683 37.9844 18.5714 35.5 18.5714C33.0156 18.5714 31 20.683 31 23.2857C31 25.8884 33.0156 28 35.5 28ZM37.75 29.5714H37.5719C36.9203 29.8071 36.2313 29.9643 35.5 29.9643C34.7687 29.9643 34.0797 29.8071 33.4281 29.5714H33.25C32.2938 29.5714 31.4125 29.8612 30.6391 30.3277C31.7828 31.6192 32.5 33.333 32.5 35.2286V37.1143C32.5 37.2223 32.4766 37.3254 32.4719 37.4286H40.75C41.9922 37.4286 43 36.3728 43 35.0714C43 32.0317 40.6516 29.5714 37.75 29.5714Z" fill="#2C0735"/>
</svg>
