<svg width="56" height="56" viewBox="0 0 56 56" fill="none" xmlns="http://www.w3.org/2000/svg">
<path fill-rule="evenodd" clip-rule="evenodd" d="M38.8965 30.6361C42.0932 32.8061 44.3332 35.7461 44.3332 39.6661V46.6661H53.6665V39.6661C53.6665 34.5794 45.3365 31.5694 38.8965 30.6361Z" fill="black"/>
<path d="M21.0003 27.9993C26.155 27.9993 30.3337 23.8206 30.3337 18.666C30.3337 13.5113 26.155 9.33264 21.0003 9.33264C15.8457 9.33264 11.667 13.5113 11.667 18.666C11.667 23.8206 15.8457 27.9993 21.0003 27.9993Z" fill="black"/>
<path fill-rule="evenodd" clip-rule="evenodd" d="M34.9998 27.9993C40.1565 27.9993 44.3332 23.8226 44.3332 18.666C44.3332 13.5093 40.1565 9.33264 34.9998 9.33264C33.9032 9.33264 32.8765 9.56597 31.8965 9.89264C33.8332 12.296 34.9998 15.3526 34.9998 18.666C34.9998 21.9793 33.8332 25.036 31.8965 27.4393C32.8765 27.766 33.9032 27.9993 34.9998 27.9993Z" fill="black"/>
<path fill-rule="evenodd" clip-rule="evenodd" d="M20.9997 30.3326C14.7697 30.3326 2.33301 33.4593 2.33301 39.666V46.666H39.6663V39.666C39.6663 33.4593 27.2297 30.3326 20.9997 30.3326Z" fill="black"/>
</svg>
