<svg width="49" height="49" viewBox="0 0 49 49" fill="none" xmlns="http://www.w3.org/2000/svg">
<path d="M24.5 0.75C11.39 0.75 0.75 11.39 0.75 24.5C0.75 37.61 11.39 48.25 24.5 48.25C37.61 48.25 48.25 37.61 48.25 24.5C48.25 11.39 37.61 0.75 24.5 0.75ZM24.5 10.25C29.0837 10.25 32.8125 13.9788 32.8125 18.5625C32.8125 23.1462 29.0837 26.875 24.5 26.875C19.9163 26.875 16.1875 23.1462 16.1875 18.5625C16.1875 13.9788 19.9163 10.25 24.5 10.25ZM24.5 43.5C19.6788 43.5 13.9788 41.5525 9.9175 36.66C13.9313 33.525 18.99 31.625 24.5 31.625C30.01 31.625 35.0687 33.525 39.0825 36.66C35.0212 41.5525 29.3212 43.5 24.5 43.5Z" fill="#2C0735"/>
</svg>
