<svg width="38" height="38" viewBox="0 0 38 38" fill="none" xmlns="http://www.w3.org/2000/svg">
<path d="M19.0002 4.76659C21.7068 4.76659 23.9002 6.95992 23.9002 9.66659C23.9002 12.3733 21.7068 14.5666 19.0002 14.5666C16.2935 14.5666 14.1002 12.3733 14.1002 9.66659C14.1002 6.95992 16.2935 4.76659 19.0002 4.76659ZM19.0002 25.7666C25.9302 25.7666 33.2335 29.1733 33.2335 30.6666V33.2333H4.76683V30.6666C4.76683 29.1733 12.0702 25.7666 19.0002 25.7666ZM19.0002 0.333252C13.8435 0.333252 9.66683 4.50992 9.66683 9.66659C9.66683 14.8233 13.8435 18.9999 19.0002 18.9999C24.1568 18.9999 28.3335 14.8233 28.3335 9.66659C28.3335 4.50992 24.1568 0.333252 19.0002 0.333252ZM19.0002 21.3333C12.7702 21.3333 0.333496 24.4599 0.333496 30.6666V37.6666H37.6668V30.6666C37.6668 24.4599 25.2302 21.3333 19.0002 21.3333Z" fill="#6750A4"/>
</svg>
